<svg width="271" height="271" viewBox="0 0 271 271" fill="none" xmlns="http://www.w3.org/2000/svg">
<rect width="271" height="271" rx="8" fill="white"/>
<path fill-rule="evenodd" clip-rule="evenodd" d="M116 126V116C127.046 116 136 124.954 136 136C136 147.046 127.046 156 116 156V146C110.477 146 106 141.523 106 136C106 130.477 110.477 126 116 126ZM116 126V146C121.523 146 126 141.523 126 136C126 130.477 121.523 126 116 126ZM156 126C161.523 126 166 130.477 166 136C166 141.523 161.523 146 156 146V156C144.954 156 136 147.046 136 136C136 124.954 144.954 116 156 116V126ZM156 126C150.477 126 146 130.477 146 136C146 141.523 150.477 146 156 146V126Z" fill="black"/>
<path fill-rule="evenodd" clip-rule="evenodd" d="M20 48V70C20 73.3137 22.6863 76 26 76H48H70C73.3137 76 76 73.3137 76 70V48V26C76 22.6863 73.3137 20 70 20H48H26C22.6863 20 20 22.6863 20 26V48ZM85.2 21.2C83.708 22.692 83.652 25.252 85.082 26.682C85.858 27.458 85.79 28.363 84.842 29.882C83.777 31.587 83.762 32.39 84.768 34C85.767 35.6 85.766 36.401 84.766 38.003C83.136 40.614 84.834 43.5 88 43.5C91.232 43.5 92.86 40.607 91.161 37.886C89.416 35.092 91.008 33.364 93.75 35.076C97.619 37.492 101.492 33.619 99.076 29.75C97.364 27.008 99.092 25.416 101.886 27.161C104.607 28.86 107.5 27.232 107.5 24C107.5 20.834 104.614 19.136 102.003 20.766C100.401 21.766 99.6 21.767 98 20.768C96.39 19.762 95.587 19.777 93.882 20.842C92.363 21.79 91.458 21.858 90.682 21.082C89.252 19.652 86.692 19.708 85.2 21.2ZM117.04 21.452C114.383 24.653 118.285 29.57 121.75 27.388C123.972 25.989 124.515 23.325 122.96 21.452C121.416 19.591 118.584 19.591 117.04 21.452ZM133.04 21.452C130.383 24.653 134.285 29.57 137.75 27.388C139.972 25.989 140.515 23.325 138.96 21.452C137.416 19.591 134.584 19.591 133.04 21.452ZM149.238 21.162C147.712 22.688 147.639 25.239 149.082 26.682C149.858 27.458 149.79 28.363 148.842 29.882C147.745 31.638 147.745 32.362 148.842 34.118C150.624 36.972 148.972 38.624 146.118 36.842C144.413 35.777 143.61 35.762 142 36.768C140.462 37.728 139.568 37.747 138.132 36.851C134.434 34.541 130.541 38.434 132.851 42.132C133.739 43.555 133.739 44.445 132.851 45.868C130.541 49.566 134.434 53.459 138.132 51.149C139.568 50.253 140.462 50.272 142 51.232C143.61 52.238 144.413 52.223 146.118 51.158C148.972 49.376 150.624 51.028 148.842 53.882C147.777 55.587 147.762 56.39 148.768 58C149.767 59.599 149.767 60.401 148.768 62C147.769 63.599 147.769 64.401 148.768 66C149.767 67.6 149.766 68.401 148.766 70.003C147.136 72.614 148.834 75.5 152 75.5C155.232 75.5 156.86 72.607 155.161 69.886C153.416 67.092 155.008 65.364 157.75 67.076C161.549 69.449 165.502 65.635 163.149 61.868C162.261 60.445 162.261 59.555 163.149 58.132C165.502 54.365 161.549 50.551 157.75 52.924C155.01 54.635 153.415 52.909 155.158 50.118C156.255 48.362 156.255 47.638 155.158 45.882C153.376 43.028 155.028 41.376 157.882 43.158C159.638 44.255 160.362 44.255 162.118 43.158C164.973 41.375 166.623 43.029 164.839 45.886C163.14 48.607 164.768 51.5 168 51.5C171.166 51.5 172.864 48.614 171.234 46.003C170.272 44.463 170.252 43.569 171.149 42.132C173.502 38.365 169.549 34.551 165.75 36.924C163.072 38.597 161.403 36.928 163.076 34.25C165.492 30.381 161.619 26.508 157.75 28.924C155.008 30.636 153.416 28.908 155.161 26.114C157.545 22.296 152.403 17.997 149.238 21.162ZM196 48V70C196 73.3137 198.686 76 202 76H224H246C249.314 76 252 73.3137 252 70V48V26C252 22.6863 249.314 20 246 20H224H202C198.686 20 196 22.6863 196 26V48ZM93.554 27.087C94.584 28.755 92.267 30.667 90.887 29.287C89.733 28.133 90.455 26 92 26C92.485 26 93.184 26.489 93.554 27.087ZM68 48V62C68 65.3137 65.3137 68 62 68H48H34C30.6863 68 28 65.3137 28 62V48V34C28 30.6863 30.6863 28 34 28H48H62C65.3137 28 68 30.6863 68 34V48ZM109.04 29.452C106.383 32.653 110.285 37.57 113.75 35.388C115.972 33.989 116.515 31.325 114.96 29.452C113.416 27.591 110.584 27.591 109.04 29.452ZM125.04 29.452C123.485 31.325 124.028 33.989 126.25 35.388C129.715 37.57 133.617 32.653 130.96 29.452C129.416 27.591 126.584 27.591 125.04 29.452ZM181.04 29.452C178.383 32.653 182.285 37.57 185.75 35.388C187.972 33.989 188.515 31.325 186.96 29.452C185.416 27.591 182.584 27.591 181.04 29.452ZM244 48V62C244 65.3137 241.314 68 238 68H224H210C206.686 68 204 65.3137 204 62V48V34C204 30.6863 206.686 28 210 28H224H238C241.314 28 244 30.6863 244 34V48ZM157.554 35.087C158.584 36.755 156.267 38.667 154.887 37.287C153.733 36.133 154.455 34 156 34C156.485 34 157.184 34.489 157.554 35.087ZM36 48V54C36 57.3137 38.6863 60 42 60H48H54C57.3137 60 60 57.3137 60 54V48V42C60 38.6863 57.3137 36 54 36H48H42C38.6863 36 36 38.6863 36 42V48ZM212 48V54C212 57.3137 214.686 60 218 60H224H230C233.314 60 236 57.3137 236 54V48V42C236 38.6863 233.314 36 230 36H224H218C214.686 36 212 38.6863 212 42V48ZM141.554 43.087C142.584 44.755 140.267 46.667 138.887 45.287C137.733 44.133 138.455 42 140 42C140.485 42 141.184 42.489 141.554 43.087ZM149.554 43.087C150.584 44.755 148.267 46.667 146.887 45.287C145.733 44.133 146.455 42 148 42C148.485 42 149.184 42.489 149.554 43.087ZM93.04 45.452C90.255 48.807 94.31 53.537 97.997 51.234C99.599 50.234 100.4 50.233 102 51.232C103.61 52.238 104.413 52.223 106.118 51.158C108.973 49.375 110.623 51.029 108.839 53.886C107.14 56.607 108.768 59.5 112 59.5C115.166 59.5 116.864 56.614 115.234 54.003C114.272 52.463 114.252 51.569 115.149 50.132C117.459 46.434 113.566 42.541 109.868 44.851C108.432 45.747 107.538 45.728 106 44.768C104.39 43.762 103.587 43.777 101.882 44.842C100.363 45.79 99.458 45.858 98.682 45.082C97.16 43.56 94.463 43.737 93.04 45.452ZM125.04 53.452C122.383 56.653 126.285 61.57 129.75 59.388C133.212 57.207 131.979 52 128 52C127.035 52 125.703 52.653 125.04 53.452ZM181.04 53.452C178.383 56.653 182.285 61.57 185.75 59.388C189.212 57.207 187.979 52 184 52C183.035 52 181.703 52.653 181.04 53.452ZM157.554 59.087C158.584 60.755 156.267 62.667 154.887 61.287C153.733 60.133 154.455 58 156 58C156.485 58 157.184 58.489 157.554 59.087ZM85.2 61.2C83.708 62.692 83.652 65.252 85.082 66.682C85.858 67.458 85.79 68.363 84.842 69.882C83.777 71.587 83.762 72.39 84.768 74C85.767 75.599 85.767 76.401 84.768 78C83.769 79.599 83.769 80.401 84.768 82C85.767 83.6 85.766 84.401 84.766 86.003C83.136 88.614 84.834 91.5 88 91.5C91.166 91.5 92.864 88.614 91.234 86.003C90.234 84.401 90.233 83.6 91.232 82C92.231 80.401 92.231 79.599 91.232 78C90.233 76.401 90.233 75.599 91.232 74C92.238 72.39 92.223 71.587 91.158 69.882C89.375 67.027 91.029 65.377 93.886 67.161C96.607 68.86 99.5 67.232 99.5 64C99.5 60.768 96.607 59.14 93.886 60.839C92.364 61.79 91.458 61.858 90.682 61.082C89.252 59.652 86.692 59.708 85.2 61.2ZM133.238 61.162C131.712 62.688 131.639 65.239 133.082 66.682C133.858 67.458 133.79 68.364 132.839 69.886C131.14 72.607 132.768 75.5 136 75.5C139.166 75.5 140.864 72.614 139.234 70.003C138.233 68.4 138.233 67.6 139.234 65.997C141.557 62.278 136.334 58.066 133.238 61.162ZM101.04 69.452C98.383 72.653 102.285 77.57 105.75 75.388C109.212 73.207 107.979 68 104 68C103.035 68 101.703 68.653 101.04 69.452ZM117.04 69.452C114.383 72.653 118.285 77.57 121.75 75.388C125.212 73.207 123.979 68 120 68C119.035 68 117.703 68.653 117.04 69.452ZM165.238 69.162C163.668 70.732 163.651 73.251 165.2 74.8C167.206 76.806 164.706 78.458 162.114 76.839C159.393 75.14 156.5 76.768 156.5 80C156.5 83.166 159.386 84.864 161.997 83.234C163.599 82.234 164.4 82.233 166 83.232C167.599 84.231 168.401 84.231 170 83.232C171.599 82.233 172.401 82.233 174 83.232C175.599 84.231 176.401 84.231 178 83.232C179.538 82.272 180.432 82.253 181.868 83.149C185.566 85.459 189.459 81.566 187.149 77.868C186.252 76.431 186.272 75.537 187.234 73.997C188.864 71.386 187.166 68.5 184 68.5C180.768 68.5 179.14 71.393 180.839 74.114C182.623 76.971 180.973 78.625 178.118 76.842C176.362 75.745 175.638 75.745 173.882 76.842C171.027 78.625 169.377 76.971 171.161 74.114C173.545 70.296 168.403 65.997 165.238 69.162ZM37.2 85.2C35.708 86.692 35.652 89.252 37.082 90.682C37.858 91.458 37.814 92.326 36.924 93.75C34.508 97.619 38.381 101.492 42.25 99.076C44.992 97.364 46.584 99.092 44.839 101.886C43.14 104.607 44.768 107.5 48 107.5C51.232 107.5 52.86 104.607 51.161 101.886C49.416 99.092 51.008 97.364 53.75 99.076C57.549 101.449 61.502 97.635 59.149 93.868C58.261 92.445 58.261 91.555 59.149 90.132C61.459 86.434 57.566 82.541 53.868 84.851C52.432 85.747 51.538 85.728 50 84.768C48.39 83.762 47.587 83.777 45.882 84.842C44.363 85.79 43.458 85.858 42.682 85.082C41.252 83.652 38.692 83.708 37.2 85.2ZM69.04 85.452C66.383 88.653 70.285 93.57 73.75 91.388C77.212 89.207 75.979 84 72 84C71.035 84 69.703 84.653 69.04 85.452ZM109.04 85.452C106.383 88.653 110.285 93.57 113.75 91.388C117.212 89.207 115.979 84 112 84C111.035 84 109.703 84.653 109.04 85.452ZM125.04 85.452C122.255 88.807 126.31 93.537 129.997 91.234C131.6 90.233 132.4 90.233 134.003 91.234C136.614 92.864 139.5 91.166 139.5 88C139.5 84.768 136.607 83.14 133.886 84.839C132.364 85.79 131.458 85.858 130.682 85.082C129.16 83.56 126.463 83.737 125.04 85.452ZM149.04 85.452C146.383 88.653 150.285 93.57 153.75 91.388C157.212 89.207 155.979 84 152 84C151.035 84 149.703 84.653 149.04 85.452ZM189.2 85.2C188.54 85.86 188 87.12 188 88C188 88.88 188.54 90.14 189.2 90.8C191.206 92.806 188.706 94.458 186.114 92.839C183.393 91.14 180.5 92.768 180.5 96C180.5 99.166 183.386 100.864 185.997 99.234C187.599 98.234 188.4 98.233 190 99.232C191.599 100.231 192.401 100.231 194 99.232C195.538 98.272 196.432 98.253 197.868 99.149C201.635 101.502 205.449 97.549 203.076 93.75C201.364 91.008 203.092 89.416 205.886 91.161C208.607 92.86 211.5 91.232 211.5 88C211.5 84.834 208.614 83.136 206.003 84.766C204.401 85.766 203.6 85.767 202 84.768C200.39 83.762 199.587 83.777 197.882 84.842C196.363 85.79 195.458 85.858 194.682 85.082C193.252 83.652 190.692 83.708 189.2 85.2ZM229.04 85.452C226.255 88.807 230.31 93.537 233.997 91.234C235.599 90.234 236.4 90.233 238 91.232C239.599 92.231 240.401 92.231 242 91.232C243.6 90.233 244.401 90.234 246.003 91.234C248.614 92.864 251.5 91.166 251.5 88C251.5 84.834 248.614 83.136 246.003 84.766C244.401 85.766 243.6 85.767 242 84.768C240.39 83.762 239.587 83.777 237.882 84.842C236.363 85.79 235.458 85.858 234.682 85.082C233.16 83.56 230.463 83.737 229.04 85.452ZM45.554 91.087C46.584 92.755 44.267 94.667 42.887 93.287C41.733 92.133 42.455 90 44 90C44.485 90 45.184 90.489 45.554 91.087ZM53.554 91.087C54.584 92.755 52.267 94.667 50.887 93.287C49.733 92.133 50.455 90 52 90C52.485 90 53.184 90.489 53.554 91.087ZM197.554 91.087C198.584 92.755 196.267 94.667 194.887 93.287C193.733 92.133 194.455 90 196 90C196.485 90 197.184 90.489 197.554 91.087ZM21.04 93.452C18.383 96.653 22.285 101.57 25.75 99.388C29.212 97.207 27.979 92 24 92C23.035 92 21.703 92.653 21.04 93.452ZM77.238 93.162C75.668 94.732 75.651 97.251 77.2 98.8C79.204 100.804 76.707 102.458 74.118 100.842C72.413 99.777 71.61 99.762 70 100.768C68.4 101.767 67.599 101.766 65.997 100.766C63.386 99.136 60.5 100.834 60.5 104C60.5 107.166 63.386 108.864 65.997 107.234C67.599 106.234 68.4 106.233 70 107.232C71.599 108.231 72.401 108.231 74 107.232C75.538 106.272 76.432 106.253 77.868 107.149C81.566 109.459 85.459 105.566 83.149 101.868C82.252 100.431 82.272 99.537 83.234 97.997C85.557 94.278 80.334 90.066 77.238 93.162ZM221.04 93.452C218.383 96.653 222.285 101.57 225.75 99.388C229.212 97.207 227.979 92 224 92C223.035 92 221.703 92.653 221.04 93.452ZM29.04 101.452C26.383 104.653 30.285 109.57 33.75 107.388C37.212 105.207 35.979 100 32 100C31.035 100 29.703 100.653 29.04 101.452ZM205.238 101.162C203.668 102.732 203.651 105.251 205.2 106.8C207.206 108.806 204.706 110.458 202.114 108.839C199.393 107.14 196.5 108.768 196.5 112C196.5 115.166 199.386 116.864 201.997 115.234C203.599 114.234 204.4 114.233 206 115.232C207.61 116.238 208.413 116.223 210.118 115.158C212.972 113.376 214.624 115.028 212.842 117.882C211.777 119.587 211.762 120.39 212.768 122C213.728 123.538 213.747 124.432 212.851 125.868C210.541 129.566 214.434 133.459 218.132 131.149C219.555 130.261 220.445 130.261 221.868 131.149C225.566 133.459 229.459 129.566 227.149 125.868C226.253 124.432 226.272 123.538 227.232 122C228.231 120.401 228.231 119.599 227.232 118C226.272 116.462 226.253 115.568 227.149 114.132C229.459 110.434 225.566 106.541 221.868 108.851C220.432 109.747 219.538 109.728 218 108.768C216.39 107.762 215.587 107.777 213.882 108.842C211.027 110.625 209.377 108.971 211.161 106.114C213.545 102.296 208.403 97.997 205.238 101.162ZM229.04 101.452C226.255 104.807 230.31 109.537 233.997 107.234C235.6 106.233 236.4 106.233 238.003 107.234C240.614 108.864 243.5 107.166 243.5 104C243.5 100.768 240.607 99.14 237.886 100.839C236.364 101.79 235.458 101.858 234.682 101.082C233.16 99.56 230.463 99.737 229.04 101.452ZM21.04 109.452C18.383 112.653 22.285 117.57 25.75 115.388C29.212 113.207 27.979 108 24 108C23.035 108 21.703 108.653 21.04 109.452ZM37.238 109.162C35.712 110.688 35.639 113.239 37.082 114.682C37.858 115.458 37.814 116.326 36.924 117.75C34.508 121.619 38.381 125.492 42.25 123.076C44.99 121.365 46.585 123.091 44.842 125.882C43.777 127.587 43.762 128.39 44.768 130C45.728 131.538 45.747 132.432 44.851 133.868C42.541 137.566 46.434 141.459 50.132 139.149C51.568 138.253 52.462 138.272 54 139.232C55.599 140.231 56.401 140.231 58 139.232C59.599 138.233 60.401 138.233 62 139.232C63.599 140.231 64.401 140.231 66 139.232C67.6 138.233 68.401 138.234 70.003 139.234C72.614 140.864 75.5 139.166 75.5 136C75.5 132.768 72.607 131.14 69.886 132.839C67.027 134.624 65.376 132.973 67.161 130.114C68.86 127.393 67.232 124.5 64 124.5C60.768 124.5 59.14 127.393 60.839 130.114C62.623 132.971 60.973 134.625 58.118 132.842C56.362 131.745 55.638 131.745 53.882 132.842C51.028 134.624 49.376 132.972 51.158 130.118C52.255 128.362 52.255 127.638 51.158 125.882C49.415 123.091 51.01 121.365 53.75 123.076C57.549 125.449 61.502 121.635 59.149 117.868C58.252 116.431 58.272 115.537 59.234 113.997C60.864 111.386 59.166 108.5 56 108.5C52.768 108.5 51.14 111.393 52.839 114.114C54.623 116.971 52.973 118.625 50.118 116.842C48.362 115.745 47.638 115.745 45.882 116.842C43.027 118.625 41.377 116.971 43.161 114.114C45.545 110.296 40.403 105.997 37.238 109.162ZM85.04 109.452C82.383 112.653 86.285 117.57 89.75 115.388C93.212 113.207 91.979 108 88 108C87.035 108 85.703 108.653 85.04 109.452ZM181.238 109.162C179.712 110.688 179.639 113.239 181.082 114.682C181.858 115.458 181.79 116.363 180.842 117.882C179.777 119.587 179.762 120.39 180.768 122C181.767 123.6 181.766 124.401 180.766 126.003C179.136 128.614 180.834 131.5 184 131.5C187.232 131.5 188.86 128.607 187.161 125.886C185.376 123.027 187.027 121.376 189.886 123.161C192.607 124.86 195.5 123.232 195.5 120C195.5 116.768 192.607 115.14 189.886 116.839C188.524 117.69 187.419 117.819 186.8 117.2C186.181 116.581 186.31 115.476 187.161 114.114C189.545 110.296 184.403 105.997 181.238 109.162ZM221.554 115.087C222.584 116.755 220.267 118.667 218.887 117.287C217.733 116.133 218.455 114 220 114C220.485 114 221.184 114.489 221.554 115.087ZM69.04 117.452C66.195 120.88 70.326 125.527 74.114 123.161C76.973 121.376 78.624 123.027 76.839 125.886C75.14 128.607 76.768 131.5 80 131.5C83.166 131.5 84.864 128.614 83.234 126.003C82.272 124.463 82.252 123.569 83.149 122.132C85.502 118.365 81.549 114.551 77.75 116.924C76.326 117.814 75.458 117.858 74.682 117.082C73.16 115.56 70.463 115.737 69.04 117.452ZM237.04 117.452C234.383 120.653 238.285 125.57 241.75 123.388C245.212 121.207 243.979 116 240 116C239.035 116 237.703 116.653 237.04 117.452ZM221.554 123.087C222.584 124.755 220.267 126.667 218.887 125.287C217.733 124.133 218.455 122 220 122C220.485 122 221.184 122.489 221.554 123.087ZM197.04 125.452C194.383 128.653 198.285 133.57 201.75 131.388C205.212 129.207 203.979 124 200 124C199.035 124 197.703 124.653 197.04 125.452ZM189.238 133.162C187.712 134.688 187.639 137.239 189.082 138.682C189.858 139.458 189.79 140.363 188.842 141.882C187.745 143.638 187.745 144.362 188.842 146.118C190.625 148.973 188.971 150.623 186.114 148.839C183.393 147.14 180.5 148.768 180.5 152C180.5 155.232 183.393 156.86 186.114 155.161C188.971 153.377 190.625 155.027 188.842 157.882C187.745 159.638 187.745 160.362 188.842 162.118C190.625 164.973 188.971 166.623 186.114 164.839C183.393 163.14 180.5 164.768 180.5 168C180.5 171.166 183.386 172.864 185.997 171.234C187.537 170.272 188.431 170.252 189.868 171.149C193.566 173.459 197.459 169.566 195.149 165.868C194.253 164.432 194.272 163.538 195.232 162C196.231 160.401 196.231 159.599 195.232 158C194.233 156.401 194.233 155.599 195.232 154C196.231 152.401 196.231 151.599 195.232 150C194.233 148.401 194.233 147.599 195.232 146C196.231 144.401 196.231 143.599 195.232 142C194.233 140.4 194.234 139.599 195.234 137.997C197.557 134.278 192.334 130.066 189.238 133.162ZM205.238 133.162C203.712 134.688 203.639 137.239 205.082 138.682C205.858 139.458 205.79 140.363 204.842 141.882C203.777 143.587 203.762 144.39 204.768 146C205.767 147.6 205.766 148.401 204.766 150.003C203.136 152.614 204.834 155.5 208 155.5C211.232 155.5 212.86 152.607 211.161 149.886C209.376 147.027 211.027 145.376 213.886 147.161C216.607 148.86 219.5 147.232 219.5 144C219.5 140.768 216.607 139.14 213.886 140.839C211.027 142.624 209.376 140.973 211.161 138.114C213.545 134.296 208.403 129.997 205.238 133.162ZM229.2 133.2C227.708 134.692 227.652 137.252 229.082 138.682C229.858 139.458 229.814 140.326 228.924 141.75C226.551 145.549 230.365 149.502 234.132 147.149C235.568 146.253 236.462 146.272 238 147.232C239.599 148.231 240.401 148.231 242 147.232C243.538 146.272 244.432 146.253 245.868 147.149C249.566 149.459 253.459 145.566 251.149 141.868C250.261 140.445 250.261 139.555 251.149 138.132C253.459 134.434 249.566 130.541 245.868 132.851C244.432 133.747 243.538 133.728 242 132.768C240.39 131.762 239.587 131.777 237.882 132.842C236.363 133.79 235.458 133.858 234.682 133.082C233.252 131.652 230.692 131.708 229.2 133.2ZM237.554 139.087C238.584 140.755 236.267 142.667 234.887 141.287C233.733 140.133 234.455 138 236 138C236.485 138 237.184 138.489 237.554 139.087ZM245.554 139.087C246.584 140.755 244.267 142.667 242.887 141.287C241.733 140.133 242.455 138 244 138C244.485 138 245.184 138.489 245.554 139.087ZM21.2 141.2C19.708 142.692 19.652 145.252 21.082 146.682C21.858 147.458 21.79 148.363 20.842 149.882C19.777 151.587 19.762 152.39 20.768 154C21.767 155.599 21.767 156.401 20.768 158C19.769 159.599 19.769 160.401 20.768 162C21.767 163.599 21.767 164.401 20.768 166C19.769 167.599 19.769 168.401 20.768 170C21.767 171.599 21.767 172.401 20.768 174C19.769 175.599 19.769 176.401 20.768 178C21.767 179.6 21.766 180.401 20.766 182.003C19.136 184.614 20.834 187.5 24 187.5C27.166 187.5 28.864 184.614 27.234 182.003C26.234 180.401 26.233 179.6 27.232 178C28.231 176.401 28.231 175.599 27.232 174C26.233 172.401 26.233 171.599 27.232 170C28.231 168.401 28.231 167.599 27.232 166C26.233 164.401 26.233 163.599 27.232 162C28.231 160.401 28.231 159.599 27.232 158C26.233 156.401 26.233 155.599 27.232 154C28.238 152.39 28.223 151.587 27.158 149.882C25.375 147.027 27.029 145.377 29.886 147.161C32.607 148.86 35.5 147.232 35.5 144C35.5 140.768 32.607 139.14 29.886 140.839C28.364 141.79 27.458 141.858 26.682 141.082C25.252 139.652 22.692 139.708 21.2 141.2ZM45.238 149.162C43.712 150.688 43.639 153.239 45.082 154.682C45.858 155.458 45.79 156.363 44.842 157.882C43.745 159.638 43.745 160.362 44.842 162.118C46.585 164.909 44.99 166.635 42.25 164.924C38.451 162.551 34.498 166.365 36.851 170.132C37.748 171.569 37.728 172.463 36.766 174.003C35.136 176.614 36.834 179.5 40 179.5C43.232 179.5 44.86 176.607 43.161 173.886C41.377 171.029 43.027 169.375 45.882 171.158C47.638 172.255 48.362 172.255 50.118 171.158C52.973 169.375 54.623 171.029 52.839 173.886C51.14 176.607 52.768 179.5 56 179.5C59.166 179.5 60.864 176.614 59.234 174.003C58.234 172.401 58.233 171.6 59.232 170C60.231 168.401 60.231 167.599 59.232 166C58.272 164.462 58.253 163.568 59.149 162.132C61.502 158.365 57.549 154.551 53.75 156.924C51.008 158.636 49.416 156.908 51.161 154.114C53.545 150.296 48.403 145.997 45.238 149.162ZM61.04 149.452C58.255 152.807 62.31 157.537 65.997 155.234C67.599 154.234 68.4 154.233 70 155.232C71.61 156.238 72.413 156.223 74.118 155.158C76.909 153.415 78.635 155.01 76.924 157.75C74.551 161.549 78.365 165.502 82.132 163.149C83.555 162.261 84.445 162.261 85.868 163.149C89.566 165.459 93.459 161.566 91.149 157.868C90.261 156.445 90.261 155.555 91.149 154.132C93.459 150.434 89.566 146.541 85.868 148.851C84.432 149.747 83.538 149.728 82 148.768C80.401 147.769 79.599 147.769 78 148.768C76.401 149.767 75.599 149.767 74 148.768C72.39 147.762 71.587 147.777 69.882 148.842C68.363 149.79 67.458 149.858 66.682 149.082C65.16 147.56 62.463 147.737 61.04 149.452ZM85.554 155.087C86.584 156.755 84.267 158.667 82.887 157.287C81.733 156.133 82.455 154 84 154C84.485 154 85.184 154.489 85.554 155.087ZM213.04 157.452C210.195 160.88 214.326 165.527 218.114 163.161C220.908 161.416 222.636 163.008 220.924 165.75C218.551 169.549 222.365 173.502 226.132 171.149C227.569 170.252 228.463 170.272 230.003 171.234C232.614 172.864 235.5 171.166 235.5 168C235.5 164.768 232.607 163.14 229.886 164.839C227.092 166.584 225.364 164.992 227.076 162.25C229.492 158.381 225.619 154.508 221.75 156.924C220.326 157.814 219.458 157.858 218.682 157.082C217.16 155.56 214.463 155.737 213.04 157.452ZM237.04 157.452C234.383 160.653 238.285 165.57 241.75 163.388C245.212 161.207 243.979 156 240 156C239.035 156 237.703 156.653 237.04 157.452ZM53.554 163.087C54.584 164.755 52.267 166.667 50.887 165.287C49.733 164.133 50.455 162 52 162C52.485 162 53.184 162.489 53.554 163.087ZM69.04 165.452C66.383 168.653 70.285 173.57 73.75 171.388C77.212 169.207 75.979 164 72 164C71.035 164 69.703 164.653 69.04 165.452ZM197.2 173.2C196.54 173.86 196 175.12 196 176C196 176.88 196.54 178.14 197.2 178.8C199.204 180.804 196.707 182.458 194.118 180.842C192.413 179.777 191.61 179.762 190 180.768C188.462 181.728 187.568 181.747 186.132 180.851C182.365 178.498 178.551 182.451 180.924 186.25C182.635 188.99 180.909 190.585 178.118 188.842C176.362 187.745 175.638 187.745 173.882 188.842C171.027 190.625 169.377 188.971 171.161 186.114C172.86 183.393 171.232 180.5 168 180.5C164.768 180.5 163.14 183.393 164.839 186.114C166.623 188.971 164.973 190.625 162.118 188.842C160.413 187.777 159.61 187.762 158 188.768C156.462 189.728 155.568 189.747 154.132 188.851C150.434 186.541 146.541 190.434 148.851 194.132C149.739 195.555 149.739 196.445 148.851 197.868C146.541 201.566 150.434 205.459 154.132 203.149C155.568 202.253 156.462 202.272 158 203.232C159.599 204.231 160.401 204.231 162 203.232C163.599 202.233 164.401 202.233 166 203.232C167.61 204.238 168.413 204.223 170.118 203.158C171.477 202.309 172.581 202.181 173.2 202.8C173.819 203.419 173.691 204.523 172.842 205.882C171.777 207.587 171.762 208.39 172.768 210C173.728 211.538 173.747 212.432 172.851 213.868C170.498 217.635 174.451 221.449 178.25 219.076C180.928 217.403 182.597 219.072 180.924 221.75C178.508 225.619 182.381 229.492 186.25 227.076C188.928 225.403 190.597 227.072 188.924 229.75C186.508 233.619 190.381 237.492 194.25 235.076C196.99 233.365 198.585 235.091 196.842 237.882C195.745 239.638 195.745 240.362 196.842 242.118C198.624 244.972 196.972 246.624 194.118 244.842C192.413 243.777 191.61 243.762 190 244.768C188.401 245.767 187.599 245.767 186 244.768C184.401 243.769 183.599 243.769 182 244.768C180.4 245.767 179.599 245.766 177.997 244.766C175.386 243.136 172.5 244.834 172.5 248C172.5 251.166 175.386 252.864 177.997 251.234C179.599 250.234 180.4 250.233 182 251.232C183.599 252.231 184.401 252.231 186 251.232C187.599 250.233 188.401 250.233 190 251.232C191.599 252.231 192.401 252.231 194 251.232C195.599 250.233 196.401 250.233 198 251.232C199.599 252.231 200.401 252.231 202 251.232C203.599 250.233 204.401 250.233 206 251.232C207.599 252.231 208.401 252.231 210 251.232C211.6 250.233 212.401 250.234 214.003 251.234C216.614 252.864 219.5 251.166 219.5 248C219.5 244.768 216.607 243.14 213.886 244.839C211.029 246.623 209.375 244.973 211.158 242.118C212.255 240.362 212.255 239.638 211.158 237.882C209.415 235.091 211.01 233.365 213.75 235.076C217.549 237.449 221.502 233.635 219.149 229.868C218.253 228.432 218.272 227.538 219.232 226C220.231 224.401 220.231 223.599 219.232 222C218.233 220.401 218.233 219.599 219.232 218C220.238 216.39 220.223 215.587 219.158 213.882C217.415 211.091 219.01 209.365 221.75 211.076C225.619 213.492 229.492 209.619 227.076 205.75C225.364 203.008 227.092 201.416 229.886 203.161C232.607 204.86 235.5 203.232 235.5 200C235.5 196.768 232.607 195.14 229.886 196.839C227.092 198.584 225.364 196.992 227.076 194.25C229.492 190.381 225.619 186.508 221.75 188.924C219.01 190.635 217.415 188.909 219.158 186.118C220.223 184.413 220.238 183.61 219.232 182C218.272 180.462 218.253 179.568 219.149 178.132C221.459 174.434 217.566 170.541 213.868 172.851C212.432 173.747 211.538 173.728 210 172.768C208.39 171.762 207.587 171.777 205.882 172.842C204.363 173.79 203.458 173.858 202.682 173.082C201.252 171.652 198.692 171.708 197.2 173.2ZM237.2 173.2C236.54 173.86 236 175.12 236 176C236 176.88 236.54 178.14 237.2 178.8C239.206 180.806 236.706 182.458 234.114 180.839C231.393 179.14 228.5 180.768 228.5 184C228.5 187.232 231.393 188.86 234.114 187.161C236.973 185.376 238.624 187.027 236.839 189.886C235.14 192.607 236.768 195.5 240 195.5C243.232 195.5 244.86 192.607 243.161 189.886C241.416 187.092 243.008 185.364 245.75 187.076C249.549 189.449 253.502 185.635 251.149 181.868C250.261 180.445 250.261 179.555 251.149 178.132C253.502 174.365 249.549 170.551 245.75 172.924C244.326 173.814 243.458 173.858 242.682 173.082C241.252 171.652 238.692 171.708 237.2 173.2ZM205.554 179.087C206.584 180.755 204.267 182.667 202.887 181.287C201.733 180.133 202.455 178 204 178C204.485 178 205.184 178.489 205.554 179.087ZM213.554 179.087C214.584 180.755 212.267 182.667 210.887 181.287C209.733 180.133 210.455 178 212 178C212.485 178 213.184 178.489 213.554 179.087ZM245.554 179.087C246.584 180.755 244.267 182.667 242.887 181.287C241.733 180.133 242.455 178 244 178C244.485 178 245.184 178.489 245.554 179.087ZM45.04 181.452C42.383 184.653 46.285 189.57 49.75 187.388C53.212 185.207 51.979 180 48 180C47.035 180 45.703 180.653 45.04 181.452ZM61.04 181.452C58.255 184.807 62.31 189.537 65.997 187.234C67.599 186.234 68.4 186.233 70 187.232C71.599 188.231 72.401 188.231 74 187.232C75.6 186.233 76.401 186.234 78.003 187.234C80.614 188.864 83.5 187.166 83.5 184C83.5 180.834 80.614 179.136 78.003 180.766C76.401 181.766 75.6 181.767 74 180.768C72.39 179.762 71.587 179.777 69.882 180.842C68.363 181.79 67.458 181.858 66.682 181.082C65.16 179.56 62.463 179.737 61.04 181.452ZM93.238 181.162C91.668 182.732 91.651 185.251 93.2 186.8C95.206 188.806 92.706 190.458 90.114 188.839C87.393 187.14 84.5 188.768 84.5 192C84.5 195.166 87.386 196.864 89.997 195.234C91.537 194.272 92.431 194.252 93.868 195.149C97.566 197.459 101.459 193.566 99.149 189.868C98.252 188.431 98.272 187.537 99.234 185.997C101.557 182.278 96.334 178.066 93.238 181.162ZM125.2 181.2C124.54 181.86 124 183.12 124 184C124 184.88 124.54 186.14 125.2 186.8C127.206 188.806 124.706 190.458 122.114 188.839C119.393 187.14 116.5 188.768 116.5 192C116.5 195.166 119.386 196.864 121.997 195.234C123.537 194.272 124.431 194.252 125.868 195.149C129.635 197.502 133.449 193.549 131.076 189.75C129.365 187.01 131.091 185.415 133.882 187.158C135.587 188.223 136.39 188.238 138 187.232C139.6 186.233 140.401 186.234 142.003 187.234C144.614 188.864 147.5 187.166 147.5 184C147.5 180.834 144.614 179.136 142.003 180.766C140.401 181.766 139.6 181.767 138 180.768C136.39 179.762 135.587 179.777 133.882 180.842C132.363 181.79 131.458 181.858 130.682 181.082C129.252 179.652 126.692 179.708 125.2 181.2ZM190.014 187.241C191.596 188.229 192.407 188.227 194 187.232C195.599 186.233 196.401 186.233 198 187.232C199.599 188.231 200.401 188.231 202 187.232C203.599 186.233 204.401 186.233 206 187.232C207.61 188.238 208.413 188.223 210.118 187.158C212.972 185.376 214.624 187.028 212.842 189.882C211.777 191.587 211.762 192.39 212.768 194C213.767 195.599 213.767 196.401 212.768 198C211.769 199.599 211.769 200.401 212.768 202C213.767 203.599 213.767 204.401 212.768 206C211.762 207.61 211.777 208.413 212.842 210.118C213.691 211.477 213.819 212.581 213.2 213.2C212.581 213.819 211.477 213.691 210.118 212.842C208.413 211.777 207.61 211.762 206 212.768C204.401 213.767 203.599 213.767 202 212.768C200.401 211.769 199.599 211.769 198 212.768C196.401 213.767 195.599 213.767 194 212.768C192.39 211.762 191.587 211.777 189.882 212.842C187.028 214.624 185.376 212.972 187.158 210.118C188.223 208.413 188.238 207.61 187.232 206C186.233 204.401 186.233 203.599 187.232 202C188.231 200.401 188.231 199.599 187.232 198C186.233 196.401 186.233 195.599 187.232 194C188.233 192.397 188.228 191.595 187.207 189.959C186.506 188.837 186.199 187.487 186.525 186.959C187.29 185.721 187.624 185.748 190.014 187.241ZM157.554 195.087C158.584 196.755 156.267 198.667 154.887 197.287C153.733 196.133 154.455 194 156 194C156.485 194 157.184 194.489 157.554 195.087ZM165.554 195.087C166.584 196.755 164.267 198.667 162.887 197.287C161.733 196.133 162.455 194 164 194C164.485 194 165.184 194.489 165.554 195.087ZM173.554 195.087C174.584 196.755 172.267 198.667 170.887 197.287C169.733 196.133 170.455 194 172 194C172.485 194 173.184 194.489 173.554 195.087ZM181.554 195.087C182.584 196.755 180.267 198.667 178.887 197.287C177.733 196.133 178.455 194 180 194C180.485 194 181.184 194.489 181.554 195.087ZM221.554 195.087C222.584 196.755 220.267 198.667 218.887 197.287C217.733 196.133 218.455 194 220 194C220.485 194 221.184 194.489 221.554 195.087ZM20 224V246C20 249.314 22.6863 252 26 252H48H70C73.3137 252 76 249.314 76 246V224V202C76 198.686 73.3137 196 70 196H48H26C22.6863 196 20 198.686 20 202V224ZM101.04 197.452C98.383 200.653 102.285 205.57 105.75 203.388C109.212 201.207 107.979 196 104 196C103.035 196 101.703 196.653 101.04 197.452ZM133.04 197.452C130.383 200.653 134.285 205.57 137.75 203.388C141.212 201.207 139.979 196 136 196C135.035 196 133.703 196.653 133.04 197.452ZM197.04 197.452C194.383 200.653 198.285 205.57 201.75 203.388C205.212 201.207 203.979 196 200 196C199.035 196 197.703 196.653 197.04 197.452ZM181.554 203.087C182.584 204.755 180.267 206.667 178.887 205.287C177.733 204.133 178.455 202 180 202C180.485 202 181.184 202.489 181.554 203.087ZM221.554 203.087C222.584 204.755 220.267 206.667 218.887 205.287C217.733 204.133 218.455 202 220 202C220.485 202 221.184 202.489 221.554 203.087ZM68 224V238C68 241.314 65.3137 244 62 244H48H34C30.6863 244 28 241.314 28 238V224V210C28 206.686 30.6863 204 34 204H48H62C65.3137 204 68 206.686 68 210V224ZM93.238 205.162C91.668 206.732 91.651 209.251 93.2 210.8C95.142 212.742 92.735 214.476 90.25 212.924C86.451 210.551 82.498 214.365 84.851 218.132C85.747 219.568 85.728 220.462 84.768 222C83.769 223.599 83.769 224.401 84.768 226C85.767 227.6 85.766 228.401 84.766 230.003C83.136 232.614 84.834 235.5 88 235.5C91.232 235.5 92.86 232.607 91.161 229.886C89.377 227.029 91.027 225.375 93.882 227.158C95.587 228.223 96.39 228.238 98 227.232C99.538 226.272 100.432 226.253 101.868 227.149C105.566 229.459 109.459 225.566 107.149 221.868C106.261 220.445 106.261 219.555 107.149 218.132C109.502 214.365 105.549 210.551 101.75 212.924C99.008 214.636 97.416 212.908 99.161 210.114C101.545 206.296 96.403 201.997 93.238 205.162ZM109.04 205.452C106.255 208.807 110.31 213.537 113.997 211.234C115.6 210.233 116.4 210.233 118.003 211.234C120.614 212.864 123.5 211.166 123.5 208C123.5 204.768 120.607 203.14 117.886 204.839C116.364 205.79 115.458 205.858 114.682 205.082C113.16 203.56 110.463 203.737 109.04 205.452ZM237.04 205.452C234.255 208.807 238.31 213.537 241.997 211.234C243.6 210.233 244.4 210.233 246.003 211.234C248.614 212.864 251.5 211.166 251.5 208C251.5 204.768 248.607 203.14 245.886 204.839C244.364 205.79 243.458 205.858 242.682 205.082C241.16 203.56 238.463 203.737 237.04 205.452ZM181.554 211.087C182.584 212.755 180.267 214.667 178.887 213.287C177.733 212.133 178.455 210 180 210C180.485 210 181.184 210.489 181.554 211.087ZM36 224V230C36 233.314 38.6863 236 42 236H48H54C57.3137 236 60 233.314 60 230V224V218C60 214.686 57.3137 212 54 212H48H42C38.6863 212 36 214.686 36 218V224ZM133.238 213.162C131.668 214.732 131.651 217.251 133.2 218.8C135.142 220.742 132.735 222.476 130.25 220.924C126.381 218.508 122.508 222.381 124.924 226.25C126.636 228.992 124.908 230.584 122.114 228.839C119.393 227.14 116.5 228.768 116.5 232C116.5 235.166 119.386 236.864 121.997 235.234C123.599 234.234 124.4 234.233 126 235.232C127.599 236.231 128.401 236.231 130 235.232C131.538 234.272 132.432 234.253 133.868 235.149C137.566 237.459 141.459 233.566 139.149 229.868C138.253 228.432 138.272 227.538 139.232 226C140.231 224.401 140.231 223.599 139.232 222C138.233 220.4 138.234 219.599 139.234 217.997C141.557 214.278 136.334 210.066 133.238 213.162ZM93.554 219.087C94.584 220.755 92.267 222.667 90.887 221.287C89.733 220.133 90.455 218 92 218C92.485 218 93.184 218.489 93.554 219.087ZM101.554 219.087C102.584 220.755 100.267 222.667 98.887 221.287C97.733 220.133 98.455 218 100 218C100.485 218 101.184 218.489 101.554 219.087ZM189.554 219.087C190.584 220.755 188.267 222.667 186.887 221.287C185.733 220.133 186.455 218 188 218C188.485 218 189.184 218.489 189.554 219.087ZM197.554 219.087C198.584 220.755 196.267 222.667 194.887 221.287C193.733 220.133 194.455 218 196 218C196.485 218 197.184 218.489 197.554 219.087ZM206.014 219.241C207.607 220.236 208.419 220.219 210.118 219.158C211.477 218.309 212.581 218.181 213.2 218.8C213.819 219.419 213.691 220.523 212.842 221.882C211.745 223.638 211.745 224.362 212.842 226.118C213.691 227.477 213.819 228.581 213.2 229.2C212.581 229.819 211.477 229.691 210.118 228.842C208.362 227.745 207.638 227.745 205.882 228.842C203.028 230.624 201.376 228.972 203.158 226.118C204.235 224.394 204.244 223.62 203.207 221.959C202.506 220.837 202.199 219.487 202.525 218.959C203.29 217.721 203.624 217.748 206.014 219.241ZM149.2 221.2C147.708 222.692 147.652 225.252 149.082 226.682C149.858 227.458 149.814 228.326 148.924 229.75C146.551 233.549 150.365 237.502 154.132 235.149C155.568 234.253 156.462 234.272 158 235.232C159.599 236.231 160.401 236.231 162 235.232C163.6 234.233 164.401 234.234 166.003 235.234C168.614 236.864 171.5 235.166 171.5 232C171.5 228.768 168.607 227.14 165.886 228.839C163.092 230.584 161.364 228.992 163.076 226.25C165.492 222.381 161.619 218.508 157.75 220.924C156.326 221.814 155.458 221.858 154.682 221.082C153.252 219.652 150.692 219.708 149.2 221.2ZM133.554 227.087C134.584 228.755 132.267 230.667 130.887 229.287C129.733 228.133 130.455 226 132 226C132.485 226 133.184 226.489 133.554 227.087ZM157.554 227.087C158.584 228.755 156.267 230.667 154.887 229.287C153.733 228.133 154.455 226 156 226C156.485 226 157.184 226.489 157.554 227.087ZM197.554 227.087C198.584 228.755 196.267 230.667 194.887 229.287C193.733 228.133 194.455 226 196 226C196.485 226 197.184 226.489 197.554 227.087ZM229.2 229.2C228.54 229.86 228 231.12 228 232C228 232.88 228.54 234.14 229.2 234.8C231.206 236.806 228.706 238.458 226.114 236.839C223.393 235.14 220.5 236.768 220.5 240C220.5 243.232 223.393 244.86 226.114 243.161C228.973 241.376 230.624 243.027 228.839 245.886C227.14 248.607 228.768 251.5 232 251.5C235.166 251.5 236.864 248.614 235.234 246.003C234.234 244.401 234.233 243.6 235.232 242C236.238 240.39 236.223 239.587 235.158 237.882C233.375 235.027 235.029 233.377 237.886 235.161C240.607 236.86 243.5 235.232 243.5 232C243.5 228.768 240.607 227.14 237.886 228.839C236.364 229.79 235.458 229.858 234.682 229.082C233.252 227.652 230.692 227.708 229.2 229.2ZM205.554 235.087C206.584 236.755 204.267 238.667 202.887 237.287C201.733 236.133 202.455 234 204 234C204.485 234 205.184 234.489 205.554 235.087ZM93.238 237.162C91.712 238.688 91.639 241.239 93.082 242.682C93.858 243.458 93.814 244.326 92.924 245.75C90.551 249.549 94.365 253.502 98.132 251.149C99.569 250.252 100.463 250.272 102.003 251.234C104.614 252.864 107.5 251.166 107.5 248C107.5 244.768 104.607 243.14 101.886 244.839C99.027 246.624 97.376 244.973 99.161 242.114C101.545 238.296 96.403 233.997 93.238 237.162ZM109.04 237.452C106.383 240.653 110.285 245.57 113.75 243.388C117.212 241.207 115.979 236 112 236C111.035 236 109.703 236.653 109.04 237.452ZM141.238 237.162C139.668 238.732 139.651 241.251 141.2 242.8C143.204 244.804 140.707 246.458 138.118 244.842C136.413 243.777 135.61 243.762 134 244.768C132.401 245.767 131.599 245.767 130 244.768C128.401 243.769 127.599 243.769 126 244.768C124.4 245.767 123.599 245.766 121.997 244.766C119.386 243.136 116.5 244.834 116.5 248C116.5 251.166 119.386 252.864 121.997 251.234C123.599 250.234 124.4 250.233 126 251.232C127.599 252.231 128.401 252.231 130 251.232C131.599 250.233 132.401 250.233 134 251.232C135.599 252.231 136.401 252.231 138 251.232C139.538 250.272 140.432 250.253 141.868 251.149C145.566 253.459 149.459 249.566 147.149 245.868C146.252 244.431 146.272 243.537 147.234 241.997C149.557 238.278 144.334 234.066 141.238 237.162ZM245.04 237.452C242.383 240.653 246.285 245.57 249.75 243.388C253.212 241.207 251.979 236 248 236C247.035 236 245.703 236.653 245.04 237.452ZM205.554 243.087C206.584 244.755 204.267 246.667 202.887 245.287C201.733 244.133 202.455 242 204 242C204.485 242 205.184 242.489 205.554 243.087Z" fill="black"/>
</svg>
