<svg width="1004" height="650" viewBox="0 0 1004 650" fill="none" xmlns="http://www.w3.org/2000/svg">
<rect width="1004" height="650" fill="#F7FAFC"/>
<path d="M53.68 523.696C53.68 523.848 53.832 524 53.984 524H95.328C122.992 524 141.232 503.632 141.232 467.912C141.232 438.12 121.776 412.888 94.72 412.888H53.984C53.832 412.888 53.68 413.04 53.68 413.192V523.696ZM65.536 424.896C65.536 424.744 65.688 424.592 65.84 424.592H94.872C116.456 424.592 129.832 446.936 129.832 468.064C129.832 489.952 119.496 511.84 97.304 511.84H65.84C65.688 511.84 65.536 511.688 65.536 511.536V424.896ZM152.867 524H164.267V446.48H152.867V524ZM150.283 421.704C150.283 426.568 153.627 429.912 158.491 429.912C163.355 429.912 166.699 426.568 166.699 421.704C166.699 416.84 163.355 413.496 158.491 413.496C153.627 413.496 150.283 416.84 150.283 421.704ZM211.338 444.96C192.794 444.96 177.138 461.224 177.138 485.088C177.138 508.8 190.362 525.368 212.25 525.368C223.65 525.368 232.162 519.744 237.634 511.384V524H249.034V417.6H237.634V460.008C231.706 451.04 222.434 444.96 211.338 444.96ZM188.69 484.632C188.69 467.912 197.962 455.6 212.098 455.6C227.298 455.6 237.33 468.216 237.33 484.784C237.33 500.592 226.994 514.424 212.402 514.424C197.506 514.424 188.69 500.592 188.69 484.632ZM268.803 524H280.203V446.48H268.803V524ZM266.219 421.704C266.219 426.568 269.563 429.912 274.427 429.912C279.291 429.912 282.635 426.568 282.635 421.704C282.635 416.84 279.291 413.496 274.427 413.496C269.563 413.496 266.219 416.84 266.219 421.704ZM327.73 525.216C345.058 525.216 357.826 512.6 359.65 499.528L349.162 497.248C347.794 506.824 338.978 515.336 327.73 515.336C313.442 515.336 302.802 504.696 302.802 486.304H360.714C361.322 461.072 345.058 445.72 327.274 445.72C305.842 445.72 291.554 462.744 291.554 485.848C291.554 508.192 305.69 525.216 327.73 525.216ZM327.274 455.296C339.586 455.296 347.49 465.48 348.554 477.184H303.562C305.386 465.328 313.898 455.296 327.274 455.296ZM373.693 524H384.333V478.248C384.333 465.328 393.909 454.84 404.245 454.84C412.757 454.84 417.317 461.832 417.317 470.648L427.805 468.824C427.805 454.84 417.621 445.112 406.221 445.112C396.645 445.112 388.133 450.28 384.333 456.36V446.328H373.693V524ZM554.476 486.608C553.412 492.232 544.292 513.968 522.404 513.968C499.756 513.968 483.948 494.816 483.948 468.824C483.948 439.792 503.556 422.16 521.34 422.16C540.492 422.16 551.132 438.12 552.5 447.544L563.748 445.416C562.836 432.344 547.94 411.064 521.644 411.064C496.868 411.064 471.484 433.256 471.484 468.216C471.484 502.416 492.156 525.064 522.1 525.064C551.74 525.064 564.66 498.464 565.724 489.192L554.476 486.608ZM600.642 525.064C616.45 525.064 624.202 516.552 627.546 509.712V524H638.642V476.576C638.642 456.056 625.266 445.112 608.242 445.112C589.546 445.112 577.994 458.64 577.994 468.368L588.178 470.648C588.482 463.352 596.69 454.536 607.33 454.536C617.514 454.536 627.394 460.312 627.394 474.752V476.576C579.058 478.856 575.562 493.904 575.562 504.696C575.562 515.488 584.682 525.064 600.642 525.064ZM586.81 502.72C587.114 494.664 594.41 486.912 627.546 486.152V491.472C627.394 504.848 614.778 515.184 603.834 515.032C594.258 515.032 586.506 510.928 586.81 502.72ZM669.937 446.48L670.089 426.568H658.993C658.993 435.384 658.993 437.664 658.993 437.664V435.384C658.993 435.384 658.993 437.664 658.993 446.48H646.985V455.296H658.993C658.993 455.6 658.993 491.776 658.993 492.08C658.841 513.36 667.961 525.064 684.377 525.064C697.449 525.064 708.545 513.36 708.393 498.92L699.273 496.944C697.753 509.864 690.913 515.184 684.529 515.184C674.193 515.184 669.937 507.128 669.937 493.6C669.937 491.776 669.937 457.12 669.937 455.296H704.289V446.48H669.937ZM719.79 446.48V456.512H765.238L719.79 513.208V524H778.766V513.208H733.47L778.918 456.512V446.48H719.79Z" fill="#1A202C"/>
<path d="M56.28 600H59.016V589.588C59.016 585.94 61.6 582.634 64.716 582.634C67.984 582.634 69.694 584.99 69.694 588.524V600H72.506V588.524C72.506 583.546 69.352 580.278 65.438 580.278C62.74 580.278 60.574 581.532 59.092 583.584C59.054 583.622 59.054 583.66 59.016 583.698V572.26H56.28V600ZM84.3121 600.304C88.6441 600.304 91.8361 597.15 92.2921 593.882L89.6701 593.312C89.3281 595.706 87.1241 597.834 84.3121 597.834C80.7401 597.834 78.0801 595.174 78.0801 590.576H92.5581C92.7101 584.268 88.6441 580.43 84.1981 580.43C78.8401 580.43 75.2681 584.686 75.2681 590.462C75.2681 596.048 78.8021 600.304 84.3121 600.304ZM84.1981 582.824C87.2761 582.824 89.2521 585.37 89.5181 588.296H78.2701C78.7261 585.332 80.8541 582.824 84.1981 582.824ZM95.4319 600H98.1679V572.26H95.4699L95.4319 600ZM102.465 600H105.201V572.26H102.503L102.465 600ZM123.52 590.158C123.52 594.148 121.278 597.796 117.402 597.796C113.602 597.796 111.36 594.148 111.36 590.196C111.36 586.054 113.526 582.634 117.478 582.634C121.164 582.634 123.52 585.978 123.52 590.158ZM108.548 590.272C108.548 596.2 112.196 600.342 117.402 600.342C122.874 600.342 126.332 596.2 126.332 590.272C126.332 584.306 122.228 580.24 117.592 580.24C112.576 580.24 108.548 584.116 108.548 590.272ZM159.234 586.434C159.234 587.599 159.095 588.739 158.816 589.854C158.563 590.969 158.158 591.982 157.6 592.894C157.043 593.781 156.359 594.503 155.548 595.06C154.738 595.592 153.775 595.858 152.66 595.858C151.495 595.858 150.57 595.529 149.886 594.87C149.228 594.186 148.822 593.413 148.67 592.552H148.48C148.024 593.489 147.353 594.275 146.466 594.908C145.58 595.541 144.465 595.858 143.122 595.858C141.197 595.858 139.702 595.212 138.638 593.92C137.6 592.628 137.08 590.918 137.08 588.79C137.08 587.118 137.41 585.649 138.068 584.382C138.727 583.09 139.652 582.077 140.842 581.342C142.058 580.607 143.49 580.24 145.136 580.24C146.251 580.24 147.34 580.341 148.404 580.544C149.494 580.721 150.342 580.924 150.95 581.152L150.57 588.866C150.545 589.322 150.532 589.651 150.532 589.854C150.532 590.031 150.532 590.158 150.532 590.234C150.532 591.551 150.76 592.425 151.216 592.856C151.698 593.287 152.255 593.502 152.888 593.502C153.674 593.502 154.332 593.185 154.864 592.552C155.422 591.893 155.84 591.032 156.118 589.968C156.422 588.879 156.574 587.688 156.574 586.396C156.574 584.04 156.093 582.051 155.13 580.43C154.193 578.783 152.888 577.529 151.216 576.668C149.57 575.807 147.695 575.376 145.592 575.376C142.704 575.376 140.26 575.971 138.258 577.162C136.282 578.353 134.775 579.999 133.736 582.102C132.723 584.179 132.216 586.561 132.216 589.246C132.216 592.995 133.204 595.871 135.18 597.872C137.156 599.873 140.006 600.874 143.73 600.874C145.276 600.874 146.745 600.697 148.138 600.342C149.557 600.013 150.811 599.645 151.9 599.24V601.824C150.811 602.28 149.582 602.647 148.214 602.926C146.872 603.23 145.377 603.382 143.73 603.382C140.741 603.382 138.182 602.825 136.054 601.71C133.926 600.595 132.292 598.999 131.152 596.922C130.038 594.819 129.48 592.299 129.48 589.36C129.48 587.004 129.848 584.825 130.582 582.824C131.317 580.797 132.381 579.049 133.774 577.58C135.168 576.085 136.852 574.933 138.828 574.122C140.83 573.286 143.084 572.868 145.592 572.868C148.227 572.868 150.57 573.413 152.622 574.502C154.674 575.591 156.283 577.149 157.448 579.176C158.639 581.203 159.234 583.622 159.234 586.434ZM140.044 588.866C140.044 590.487 140.361 591.665 140.994 592.4C141.653 593.135 142.527 593.502 143.616 593.502C145.035 593.502 146.048 592.97 146.656 591.906C147.29 590.842 147.657 589.461 147.758 587.764L147.986 583.014C147.657 582.913 147.239 582.824 146.732 582.748C146.226 582.672 145.706 582.634 145.174 582.634C143.933 582.634 142.932 582.938 142.172 583.546C141.412 584.154 140.868 584.939 140.538 585.902C140.209 586.839 140.044 587.827 140.044 588.866ZM170.574 580.24C165.938 580.24 162.024 584.306 162.024 590.272C162.024 596.2 165.33 600.342 170.802 600.342C173.652 600.342 175.78 598.936 177.148 596.846V600H179.998V573.4H177.148V584.002C175.666 581.76 173.348 580.24 170.574 580.24ZM164.912 590.158C164.912 585.978 167.23 582.9 170.764 582.9C174.564 582.9 177.072 586.054 177.072 590.196C177.072 594.148 174.488 597.606 170.84 597.606C167.116 597.606 164.912 594.148 164.912 590.158ZM184.94 600H187.79V580.62H184.94V600ZM184.294 574.426C184.294 575.642 185.13 576.478 186.346 576.478C187.562 576.478 188.398 575.642 188.398 574.426C188.398 573.21 187.562 572.374 186.346 572.374C185.13 572.374 184.294 573.21 184.294 574.426ZM199.558 580.24C194.922 580.24 191.008 584.306 191.008 590.272C191.008 596.2 194.314 600.342 199.786 600.342C202.636 600.342 204.764 598.936 206.132 596.846V600H208.982V573.4H206.132V584.002C204.65 581.76 202.332 580.24 199.558 580.24ZM193.896 590.158C193.896 585.978 196.214 582.9 199.748 582.9C203.548 582.9 206.056 586.054 206.056 590.196C206.056 594.148 203.472 597.606 199.824 597.606C196.1 597.606 193.896 594.148 193.896 590.158ZM213.924 600H216.774V580.62H213.924V600ZM213.278 574.426C213.278 575.642 214.114 576.478 215.33 576.478C216.546 576.478 217.382 575.642 217.382 574.426C217.382 573.21 216.546 572.374 215.33 572.374C214.114 572.374 213.278 573.21 213.278 574.426ZM228.656 600.304C232.988 600.304 236.18 597.15 236.636 593.882L234.014 593.312C233.672 595.706 231.468 597.834 228.656 597.834C225.084 597.834 222.424 595.174 222.424 590.576H236.902C237.054 584.268 232.988 580.43 228.542 580.43C223.184 580.43 219.612 584.686 219.612 590.462C219.612 596.048 223.146 600.304 228.656 600.304ZM228.542 582.824C231.62 582.824 233.596 585.37 233.862 588.296H222.614C223.07 585.332 225.198 582.824 228.542 582.824ZM240.147 600H242.807V588.562C242.807 585.332 245.201 582.71 247.785 582.71C249.913 582.71 251.053 584.458 251.053 586.662L253.675 586.206C253.675 582.71 251.129 580.278 248.279 580.278C245.885 580.278 243.757 581.57 242.807 583.09V580.582H240.147V600ZM268.745 593.236C268.555 595.516 266.731 597.796 263.577 597.796C259.359 597.796 257.345 594.452 257.345 590.424C257.345 585.902 259.929 582.71 263.539 582.71C266.579 582.71 268.213 585.104 268.441 586.624L270.949 586.244C270.645 583.432 267.985 580.316 263.539 580.316C258.409 580.316 254.533 584.8 254.533 590.462C254.533 595.478 257.725 600.342 263.729 600.342C267.757 600.342 270.873 597.53 271.329 593.73L268.745 593.236ZM279.609 600.266C283.561 600.266 285.499 598.138 286.335 596.428V600H289.109V588.144C289.109 583.014 285.765 580.278 281.509 580.278C276.835 580.278 273.947 583.66 273.947 586.092L276.493 586.662C276.569 584.838 278.621 582.634 281.281 582.634C283.827 582.634 286.297 584.078 286.297 587.688V588.144C274.213 588.714 273.339 592.476 273.339 595.174C273.339 597.872 275.619 600.266 279.609 600.266ZM276.151 594.68C276.227 592.666 278.051 590.728 286.335 590.538V591.868C286.297 595.212 283.143 597.796 280.407 597.758C278.013 597.758 276.075 596.732 276.151 594.68ZM296.932 580.62L296.97 575.642H294.196C294.196 577.846 294.196 578.416 294.196 578.416V577.846C294.196 577.846 294.196 578.416 294.196 580.62H291.194V582.824H294.196C294.196 582.9 294.196 591.944 294.196 592.02C294.158 597.34 296.438 600.266 300.542 600.266C303.81 600.266 306.584 597.34 306.546 593.73L304.266 593.236C303.886 596.466 302.176 597.796 300.58 597.796C297.996 597.796 296.932 595.782 296.932 592.4C296.932 591.944 296.932 583.28 296.932 582.824H305.52V580.62H296.932ZM309.396 580.62V583.128H320.758L309.396 597.302V600H324.14V597.302H312.816L324.178 583.128V580.62H309.396ZM327.235 598.556C327.235 599.696 328.033 600.494 329.173 600.494C330.351 600.494 331.149 599.696 331.149 598.556C331.149 597.378 330.351 596.58 329.173 596.58C328.033 596.58 327.235 597.378 327.235 598.556ZM346.808 593.236C346.618 595.516 344.794 597.796 341.64 597.796C337.422 597.796 335.408 594.452 335.408 590.424C335.408 585.902 337.992 582.71 341.602 582.71C344.642 582.71 346.276 585.104 346.504 586.624L349.012 586.244C348.708 583.432 346.048 580.316 341.602 580.316C336.472 580.316 332.596 584.8 332.596 590.462C332.596 595.478 335.788 600.342 341.792 600.342C345.82 600.342 348.936 597.53 349.392 593.73L346.808 593.236ZM366.374 590.158C366.374 594.148 364.132 597.796 360.256 597.796C356.456 597.796 354.214 594.148 354.214 590.196C354.214 586.054 356.38 582.634 360.332 582.634C364.018 582.634 366.374 585.978 366.374 590.158ZM351.402 590.272C351.402 596.2 355.05 600.342 360.256 600.342C365.728 600.342 369.186 596.2 369.186 590.272C369.186 584.306 365.082 580.24 360.446 580.24C355.43 580.24 351.402 584.116 351.402 590.272ZM372.113 600.038H374.849V589.436C374.849 585.408 377.015 582.71 379.751 582.71C382.297 582.71 383.779 584.686 383.779 588.106V600.038H386.439V589.36C386.439 585.256 388.339 582.748 391.151 582.748C393.735 582.748 395.217 584.61 395.217 588.22V600.038H397.877V587.118C397.877 583.09 395.369 580.24 391.797 580.24C388.491 580.24 386.553 582.292 385.755 583.888C385.299 582.368 383.133 580.202 380.435 580.202C377.319 580.202 375.647 582.216 374.849 583.66V580.62H372.113V600.038Z" fill="#718096"/>
<path d="M782.265 586.434C782.265 587.599 782.126 588.739 781.847 589.854C781.594 590.969 781.188 591.982 780.631 592.894C780.074 593.781 779.39 594.503 778.579 595.06C777.768 595.592 776.806 595.858 775.691 595.858C774.526 595.858 773.601 595.529 772.917 594.87C772.258 594.186 771.853 593.413 771.701 592.552H771.511C771.055 593.489 770.384 594.275 769.497 594.908C768.61 595.541 767.496 595.858 766.153 595.858C764.228 595.858 762.733 595.212 761.669 593.92C760.63 592.628 760.111 590.918 760.111 588.79C760.111 587.118 760.44 585.649 761.099 584.382C761.758 583.09 762.682 582.077 763.873 581.342C765.089 580.607 766.52 580.24 768.167 580.24C769.282 580.24 770.371 580.341 771.435 580.544C772.524 580.721 773.373 580.924 773.981 581.152L773.601 588.866C773.576 589.322 773.563 589.651 773.563 589.854C773.563 590.031 773.563 590.158 773.563 590.234C773.563 591.551 773.791 592.425 774.247 592.856C774.728 593.287 775.286 593.502 775.919 593.502C776.704 593.502 777.363 593.185 777.895 592.552C778.452 591.893 778.87 591.032 779.149 589.968C779.453 588.879 779.605 587.688 779.605 586.396C779.605 584.04 779.124 582.051 778.161 580.43C777.224 578.783 775.919 577.529 774.247 576.668C772.6 575.807 770.726 575.376 768.623 575.376C765.735 575.376 763.29 575.971 761.289 577.162C759.313 578.353 757.806 579.999 756.767 582.102C755.754 584.179 755.247 586.561 755.247 589.246C755.247 592.995 756.235 595.871 758.211 597.872C760.187 599.873 763.037 600.874 766.761 600.874C768.306 600.874 769.776 600.697 771.169 600.342C772.588 600.013 773.842 599.645 774.931 599.24V601.824C773.842 602.28 772.613 602.647 771.245 602.926C769.902 603.23 768.408 603.382 766.761 603.382C763.772 603.382 761.213 602.825 759.085 601.71C756.957 600.595 755.323 598.999 754.183 596.922C753.068 594.819 752.511 592.299 752.511 589.36C752.511 587.004 752.878 584.825 753.613 582.824C754.348 580.797 755.412 579.049 756.805 577.58C758.198 576.085 759.883 574.933 761.859 574.122C763.86 573.286 766.115 572.868 768.623 572.868C771.258 572.868 773.601 573.413 775.653 574.502C777.705 575.591 779.314 577.149 780.479 579.176C781.67 581.203 782.265 583.622 782.265 586.434ZM763.075 588.866C763.075 590.487 763.392 591.665 764.025 592.4C764.684 593.135 765.558 593.502 766.647 593.502C768.066 593.502 769.079 592.97 769.687 591.906C770.32 590.842 770.688 589.461 770.789 587.764L771.017 583.014C770.688 582.913 770.27 582.824 769.763 582.748C769.256 582.672 768.737 582.634 768.205 582.634C766.964 582.634 765.963 582.938 765.203 583.546C764.443 584.154 763.898 584.939 763.569 585.902C763.24 586.839 763.075 587.827 763.075 588.866ZM793.605 580.24C788.969 580.24 785.055 584.306 785.055 590.272C785.055 596.2 788.361 600.342 793.833 600.342C796.683 600.342 798.811 598.936 800.179 596.846V600H803.029V573.4H800.179V584.002C798.697 581.76 796.379 580.24 793.605 580.24ZM787.943 590.158C787.943 585.978 790.261 582.9 793.795 582.9C797.595 582.9 800.103 586.054 800.103 590.196C800.103 594.148 797.519 597.606 793.871 597.606C790.147 597.606 787.943 594.148 787.943 590.158ZM807.971 600H810.821V580.62H807.971V600ZM807.325 574.426C807.325 575.642 808.161 576.478 809.377 576.478C810.593 576.478 811.429 575.642 811.429 574.426C811.429 573.21 810.593 572.374 809.377 572.374C808.161 572.374 807.325 573.21 807.325 574.426ZM822.589 580.24C817.953 580.24 814.039 584.306 814.039 590.272C814.039 596.2 817.345 600.342 822.817 600.342C825.667 600.342 827.795 598.936 829.163 596.846V600H832.013V573.4H829.163V584.002C827.681 581.76 825.363 580.24 822.589 580.24ZM816.927 590.158C816.927 585.978 819.245 582.9 822.779 582.9C826.579 582.9 829.087 586.054 829.087 590.196C829.087 594.148 826.503 597.606 822.855 597.606C819.131 597.606 816.927 594.148 816.927 590.158ZM836.955 600H839.805V580.62H836.955V600ZM836.309 574.426C836.309 575.642 837.145 576.478 838.361 576.478C839.577 576.478 840.413 575.642 840.413 574.426C840.413 573.21 839.577 572.374 838.361 572.374C837.145 572.374 836.309 573.21 836.309 574.426ZM851.687 600.304C856.019 600.304 859.211 597.15 859.667 593.882L857.045 593.312C856.703 595.706 854.499 597.834 851.687 597.834C848.115 597.834 845.455 595.174 845.455 590.576H859.933C860.085 584.268 856.019 580.43 851.573 580.43C846.215 580.43 842.643 584.686 842.643 590.462C842.643 596.048 846.177 600.304 851.687 600.304ZM851.573 582.824C854.651 582.824 856.627 585.37 856.893 588.296H845.645C846.101 585.332 848.229 582.824 851.573 582.824ZM863.177 600H865.837V588.562C865.837 585.332 868.231 582.71 870.815 582.71C872.943 582.71 874.083 584.458 874.083 586.662L876.705 586.206C876.705 582.71 874.159 580.278 871.309 580.278C868.915 580.278 866.787 581.57 865.837 583.09V580.582H863.177V600ZM891.776 593.236C891.586 595.516 889.762 597.796 886.608 597.796C882.39 597.796 880.376 594.452 880.376 590.424C880.376 585.902 882.96 582.71 886.57 582.71C889.61 582.71 891.244 585.104 891.472 586.624L893.98 586.244C893.676 583.432 891.016 580.316 886.57 580.316C881.44 580.316 877.564 584.8 877.564 590.462C877.564 595.478 880.756 600.342 886.76 600.342C890.788 600.342 893.904 597.53 894.36 593.73L891.776 593.236ZM902.64 600.266C906.592 600.266 908.53 598.138 909.366 596.428V600H912.14V588.144C912.14 583.014 908.796 580.278 904.54 580.278C899.866 580.278 896.978 583.66 896.978 586.092L899.524 586.662C899.6 584.838 901.652 582.634 904.312 582.634C906.858 582.634 909.328 584.078 909.328 587.688V588.144C897.244 588.714 896.37 592.476 896.37 595.174C896.37 597.872 898.65 600.266 902.64 600.266ZM899.182 594.68C899.258 592.666 901.082 590.728 909.366 590.538V591.868C909.328 595.212 906.174 597.796 903.438 597.758C901.044 597.758 899.106 596.732 899.182 594.68ZM919.963 580.62L920.001 575.642H917.227C917.227 577.846 917.227 578.416 917.227 578.416V577.846C917.227 577.846 917.227 578.416 917.227 580.62H914.225V582.824H917.227C917.227 582.9 917.227 591.944 917.227 592.02C917.189 597.34 919.469 600.266 923.573 600.266C926.841 600.266 929.615 597.34 929.577 593.73L927.297 593.236C926.917 596.466 925.207 597.796 923.611 597.796C921.027 597.796 919.963 595.782 919.963 592.4C919.963 591.944 919.963 583.28 919.963 582.824H928.551V580.62H919.963ZM932.426 580.62V583.128H943.788L932.426 597.302V600H947.17V597.302H935.846L947.208 583.128V580.62H932.426Z" fill="#718096"/>
<path d="M694.348 121.924C694.348 121.962 694.386 122 694.424 122H704.76C711.676 122 716.236 116.908 716.236 107.978C716.236 100.53 711.372 94.222 704.608 94.222H694.424C694.386 94.222 694.348 94.26 694.348 94.298V121.924ZM697.312 97.224C697.312 97.186 697.35 97.148 697.388 97.148H704.646C710.042 97.148 713.386 102.734 713.386 108.016C713.386 113.488 710.802 118.96 705.254 118.96H697.388C697.35 118.96 697.312 118.922 697.312 118.884V97.224ZM719.144 122H721.994V102.62H719.144V122ZM718.498 96.426C718.498 97.642 719.334 98.478 720.55 98.478C721.766 98.478 722.602 97.642 722.602 96.426C722.602 95.21 721.766 94.374 720.55 94.374C719.334 94.374 718.498 95.21 718.498 96.426ZM734.332 102.24C729.316 102.24 725.212 106.116 725.212 112.272C725.212 118.2 728.936 122.342 734.142 122.342C736.612 122.342 738.512 121.24 739.842 119.682V121.544C739.842 126.142 737.03 128.308 734.18 128.308C731.672 128.308 729.164 126.598 728.594 123.406L726.048 124.166C726.884 128.612 730.456 130.93 734.104 130.93C738.284 130.93 742.502 127.852 742.502 121.468V102.62H739.956V104.938C738.588 103.228 736.65 102.24 734.332 102.24ZM728.1 112.196C728.1 108.054 730.418 104.9 734.218 104.9C737.752 104.9 740.26 107.978 740.26 112.158C740.26 116.148 737.866 119.606 734.142 119.606C730.494 119.606 728.1 116.148 728.1 112.196ZM746.718 122H749.568V102.62H746.718V122ZM746.072 96.426C746.072 97.642 746.908 98.478 748.124 98.478C749.34 98.478 750.176 97.642 750.176 96.426C750.176 95.21 749.34 94.374 748.124 94.374C746.908 94.374 746.072 95.21 746.072 96.426ZM758.696 102.62L758.734 97.642H755.96C755.96 99.846 755.96 100.416 755.96 100.416V99.846C755.96 99.846 755.96 100.416 755.96 102.62H752.958V104.824H755.96C755.96 104.9 755.96 113.944 755.96 114.02C755.922 119.34 758.202 122.266 762.306 122.266C765.574 122.266 768.348 119.34 768.31 115.73L766.03 115.236C765.65 118.466 763.94 119.796 762.344 119.796C759.76 119.796 758.696 117.782 758.696 114.4C758.696 113.944 758.696 105.28 758.696 104.824H767.284V102.62H758.696ZM776.48 122.266C780.432 122.266 782.37 120.138 783.206 118.428V122H785.98V110.144C785.98 105.014 782.636 102.278 778.38 102.278C773.706 102.278 770.818 105.66 770.818 108.092L773.364 108.662C773.44 106.838 775.492 104.634 778.152 104.634C780.698 104.634 783.168 106.078 783.168 109.688V110.144C771.084 110.714 770.21 114.476 770.21 117.174C770.21 119.872 772.49 122.266 776.48 122.266ZM773.022 116.68C773.098 114.666 774.922 112.728 783.206 112.538V113.868C783.168 117.212 780.014 119.796 777.278 119.758C774.884 119.758 772.946 118.732 773.022 116.68ZM790.29 122H793.026V94.26H790.328L790.29 122ZM807.574 121.924C807.574 121.962 807.612 122 807.65 122H817.986C824.902 122 829.462 116.908 829.462 107.978C829.462 100.53 824.598 94.222 817.834 94.222H807.65C807.612 94.222 807.574 94.26 807.574 94.298V121.924ZM810.538 97.224C810.538 97.186 810.576 97.148 810.614 97.148H817.872C823.268 97.148 826.612 102.734 826.612 108.016C826.612 113.488 824.028 118.96 818.48 118.96H810.614C810.576 118.96 810.538 118.922 810.538 118.884V97.224ZM839.847 122.304C844.179 122.304 847.371 119.15 847.827 115.882L845.205 115.312C844.863 117.706 842.659 119.834 839.847 119.834C836.275 119.834 833.615 117.174 833.615 112.576H848.093C848.245 106.268 844.179 102.43 839.733 102.43C834.375 102.43 830.803 106.686 830.803 112.462C830.803 118.048 834.337 122.304 839.847 122.304ZM839.733 104.824C842.811 104.824 844.787 107.37 845.053 110.296H833.805C834.261 107.332 836.389 104.824 839.733 104.824ZM853.352 115.616L850.768 116.262C850.73 118.694 853.048 122.342 858.976 122.342C864.334 122.342 866.614 119.34 866.652 116.376C866.69 113.678 864.904 111.094 860.686 110.6L856.658 110.144C855.062 109.954 854.074 109.042 854.074 107.598C854.074 106.154 855.936 104.52 858.862 104.52C862.358 104.52 863.194 106.8 863.346 108.244L865.778 107.75C865.778 106.306 864.638 102.316 858.862 102.316C853.846 102.316 851.452 105.356 851.452 107.674C851.452 111.018 854.036 112.5 855.974 112.728L859.964 113.184C862.054 113.412 863.916 114.02 863.916 116.262C863.916 118.504 862.092 119.834 859.052 119.834C855.29 119.834 853.504 117.82 853.352 115.616ZM870.001 122H872.851V102.62H870.001V122ZM869.355 96.426C869.355 97.642 870.191 98.478 871.407 98.478C872.623 98.478 873.459 97.642 873.459 96.426C873.459 95.21 872.623 94.374 871.407 94.374C870.191 94.374 869.355 95.21 869.355 96.426ZM885.189 102.24C880.173 102.24 876.069 106.116 876.069 112.272C876.069 118.2 879.793 122.342 884.999 122.342C887.469 122.342 889.369 121.24 890.699 119.682V121.544C890.699 126.142 887.887 128.308 885.037 128.308C882.529 128.308 880.021 126.598 879.451 123.406L876.905 124.166C877.741 128.612 881.313 130.93 884.961 130.93C889.141 130.93 893.359 127.852 893.359 121.468V102.62H890.813V104.938C889.445 103.228 887.507 102.24 885.189 102.24ZM878.957 112.196C878.957 108.054 881.275 104.9 885.075 104.9C888.609 104.9 891.117 107.978 891.117 112.158C891.117 116.148 888.723 119.606 884.999 119.606C881.351 119.606 878.957 116.148 878.957 112.196ZM897.671 122H900.407V111.588C900.407 107.94 902.991 104.824 906.107 104.824C909.375 104.824 911.085 107.18 911.085 110.714V122H913.897V110.524C913.897 105.546 910.743 102.278 906.829 102.278C904.131 102.278 901.813 103.456 900.483 105.736C900.445 105.774 900.445 105.812 900.407 105.888V102.62H897.671V122ZM925.073 122.304C929.405 122.304 932.597 119.15 933.053 115.882L930.431 115.312C930.089 117.706 927.885 119.834 925.073 119.834C921.501 119.834 918.841 117.174 918.841 112.576H933.319C933.471 106.268 929.405 102.43 924.959 102.43C919.601 102.43 916.029 106.686 916.029 112.462C916.029 118.048 919.563 122.304 925.073 122.304ZM924.959 104.824C928.037 104.824 930.013 107.37 930.279 110.296H919.031C919.487 107.332 921.615 104.824 924.959 104.824ZM936.563 122H939.223V110.562C939.223 107.332 941.617 104.71 944.201 104.71C946.329 104.71 947.469 106.458 947.469 108.662L950.091 108.206C950.091 104.71 947.545 102.278 944.695 102.278C942.301 102.278 940.173 103.57 939.223 105.09V102.582H936.563V122ZM759.632 135.45C761.659 135.45 763.255 135.969 764.42 137.008C765.611 138.021 766.206 139.453 766.206 141.302C766.206 142.898 765.687 144.253 764.648 145.368C763.635 146.483 762.343 147.496 760.772 148.408L768.106 155.476C768.765 154.691 769.297 153.791 769.702 152.778C770.133 151.739 770.488 150.625 770.766 149.434H774.148C773.743 151.055 773.236 152.563 772.628 153.956C772.02 155.349 771.235 156.565 770.272 157.604L775.82 163H771.298L767.992 159.808C766.802 160.872 765.472 161.733 764.002 162.392C762.533 163.051 760.747 163.38 758.644 163.38C756.035 163.38 753.958 162.734 752.412 161.442C750.867 160.15 750.094 158.313 750.094 155.932C750.094 153.981 750.614 152.423 751.652 151.258C752.716 150.067 754.148 148.965 755.946 147.952C755.136 147.04 754.376 146.065 753.666 145.026C752.982 143.987 752.64 142.771 752.64 141.378C752.64 139.503 753.261 138.047 754.502 137.008C755.769 135.969 757.479 135.45 759.632 135.45ZM759.518 138.186C758.454 138.186 757.58 138.465 756.896 139.022C756.238 139.579 755.908 140.352 755.908 141.34C755.908 142.252 756.149 143.101 756.63 143.886C757.112 144.646 757.808 145.495 758.72 146.432C760.215 145.571 761.279 144.76 761.912 144C762.571 143.215 762.9 142.315 762.9 141.302C762.9 140.39 762.596 139.643 761.988 139.06C761.38 138.477 760.557 138.186 759.518 138.186ZM757.96 150.042C756.592 150.853 755.516 151.676 754.73 152.512C753.97 153.348 753.59 154.45 753.59 155.818C753.59 157.211 754.059 158.326 754.996 159.162C755.934 159.998 757.188 160.416 758.758 160.416C760.38 160.416 761.773 160.15 762.938 159.618C764.104 159.086 765.079 158.453 765.864 157.718L757.96 150.042ZM787.684 162.924C787.684 162.962 787.722 163 787.76 163H798.096C805.012 163 809.572 157.908 809.572 148.978C809.572 141.53 804.708 135.222 797.944 135.222H787.76C787.722 135.222 787.684 135.26 787.684 135.298V162.924ZM790.648 138.224C790.648 138.186 790.686 138.148 790.724 138.148H797.982C803.378 138.148 806.722 143.734 806.722 149.016C806.722 154.488 804.138 159.96 798.59 159.96H790.724C790.686 159.96 790.648 159.922 790.648 159.884V138.224ZM819.957 163.304C824.289 163.304 827.481 160.15 827.937 156.882L825.315 156.312C824.973 158.706 822.769 160.834 819.957 160.834C816.385 160.834 813.725 158.174 813.725 153.576H828.203C828.355 147.268 824.289 143.43 819.843 143.43C814.485 143.43 810.913 147.686 810.913 153.462C810.913 159.048 814.447 163.304 819.957 163.304ZM819.843 145.824C822.921 145.824 824.897 148.37 825.163 151.296H813.915C814.371 148.332 816.499 145.824 819.843 145.824ZM829.585 143.62L837.261 163H841.175L848.851 143.62H845.887L839.237 160.454L832.549 143.62H829.585ZM857.958 163.304C862.29 163.304 865.482 160.15 865.938 156.882L863.316 156.312C862.974 158.706 860.77 160.834 857.958 160.834C854.386 160.834 851.726 158.174 851.726 153.576H866.204C866.356 147.268 862.29 143.43 857.844 143.43C852.486 143.43 848.914 147.686 848.914 153.462C848.914 159.048 852.448 163.304 857.958 163.304ZM857.844 145.824C860.922 145.824 862.898 148.37 863.164 151.296H851.916C852.372 148.332 854.5 145.824 857.844 145.824ZM869.078 163H871.814V135.26H869.116L869.078 163ZM890.133 153.158C890.133 157.148 887.891 160.796 884.015 160.796C880.215 160.796 877.973 157.148 877.973 153.196C877.973 149.054 880.139 145.634 884.091 145.634C887.777 145.634 890.133 148.978 890.133 153.158ZM875.161 153.272C875.161 159.2 878.809 163.342 884.015 163.342C889.487 163.342 892.945 159.2 892.945 153.272C892.945 147.306 888.841 143.24 884.205 143.24C879.189 143.24 875.161 147.116 875.161 153.272ZM895.872 143.62V170.22H898.684V160.644C900.166 162.354 902.294 163.38 904.802 163.38C909.438 163.38 913.352 159.314 913.352 153.348C913.352 147.534 910.008 143.316 904.688 143.316C902.294 143.316 900.166 144.38 898.684 146.242V143.62H895.872ZM904.536 160.606C900.736 160.606 898.228 157.452 898.228 153.31C898.228 149.358 900.812 145.824 904.46 145.824C908.184 145.824 910.388 149.358 910.388 153.348C910.388 157.528 908.07 160.606 904.536 160.606ZM924.313 163.304C928.645 163.304 931.837 160.15 932.293 156.882L929.671 156.312C929.329 158.706 927.125 160.834 924.313 160.834C920.741 160.834 918.081 158.174 918.081 153.576H932.559C932.711 147.268 928.645 143.43 924.199 143.43C918.841 143.43 915.269 147.686 915.269 153.462C915.269 159.048 918.803 163.304 924.313 163.304ZM924.199 145.824C927.277 145.824 929.253 148.37 929.519 151.296H918.271C918.727 148.332 920.855 145.824 924.199 145.824ZM935.803 163H938.463V151.562C938.463 148.332 940.857 145.71 943.441 145.71C945.569 145.71 946.709 147.458 946.709 149.662L949.331 149.206C949.331 145.71 946.785 143.278 943.935 143.278C941.541 143.278 939.413 144.57 938.463 146.09V143.582H935.803V163Z" fill="#718096"/>
<path fill-rule="evenodd" clip-rule="evenodd" d="M64 102V92C75.0457 92 84 100.954 84 112C84 123.046 75.0457 132 64 132V122C58.4772 122 54 117.523 54 112C54 106.477 58.4772 102 64 102ZM64 102V122C69.5228 122 74 117.523 74 112C74 106.477 69.5228 102 64 102ZM104 102C109.523 102 114 106.477 114 112C114 117.523 109.523 122 104 122V132C92.9543 132 84 123.046 84 112C84 100.954 92.9543 92 104 92V102ZM104 102C98.4772 102 94 106.477 94 112C94 117.523 98.4772 122 104 122V102Z" fill="black"/>
<path fill-rule="evenodd" clip-rule="evenodd" d="M64 102V92C75.0457 92 84 100.954 84 112C84 123.046 75.0457 132 64 132V122C58.4772 122 54 117.523 54 112C54 106.477 58.4772 102 64 102ZM64 102V122C69.5228 122 74 117.523 74 112C74 106.477 69.5228 102 64 102ZM104 102C109.523 102 114 106.477 114 112C114 117.523 109.523 122 104 122V132C92.9543 132 84 123.046 84 112C84 100.954 92.9543 92 104 92V102ZM104 102C98.4772 102 94 106.477 94 112C94 117.523 98.4772 122 104 122V102Z" fill="black"/>
</svg>
